<svg width="28" height="28" viewBox="0 0 28 28" fill="none" xmlns="http://www.w3.org/2000/svg">
<path d="M7.26178 20.9168C7.4269 21.0778 7.64955 21.166 7.88011 21.1618C8.10998 21.1623 8.33127 21.0746 8.49844 20.9168L19.3834 10.0216V19.4235C19.3834 19.9068 19.7752 20.2985 20.2584 20.2985C20.4935 20.3049 20.7209 20.2151 20.8883 20.05C21.0556 19.8849 21.1484 19.6586 21.1451 19.4235V8.06925C21.1754 7.93614 21.1747 7.79552 21.1397 7.65851C21.0606 7.34849 20.8185 7.10641 20.5084 7.02723C20.3714 6.99224 20.2308 6.99154 20.0977 7.02185H8.74344C8.2602 7.02185 7.86844 7.4136 7.86844 7.89685C7.86844 8.3801 8.2602 8.77185 8.74344 8.77185H18.1584L7.26178 19.6685C7.09433 19.833 7 20.0579 7 20.2927C7 20.5274 7.09433 20.7523 7.26178 20.9168Z" fill="white" stroke="white"/>
</svg>
