<svg width="16" height="16" viewBox="0 0 16 16" fill="none" xmlns="http://www.w3.org/2000/svg">
<path d="M8.97518 9.26801C8.97518 8.65681 8.47971 8.16134 7.86851 8.16134C7.25732 8.16134 6.76185 8.65681 6.76185 9.26801C6.76093 9.52713 6.85321 9.77794 7.02185 9.97468C7.19176 10.1517 7.25067 10.4078 7.17518 10.6413L7.03518 11.0547C6.98104 11.2406 7.01683 11.441 7.13194 11.5967C7.24705 11.7524 7.42826 11.8453 7.62185 11.848H8.11518C8.31517 11.8479 8.50286 11.7514 8.61923 11.5888C8.7356 11.4261 8.76636 11.2173 8.70185 11.028L8.53518 10.6147C8.45969 10.3812 8.51859 10.1251 8.68851 9.94801C8.86095 9.76203 8.96243 9.5213 8.97518 9.26801Z" fill="#ADADB8"/>
<path fill-rule="evenodd" clip-rule="evenodd" d="M11.0352 5.41467V3.33467C11.0355 2.79129 10.8148 2.27114 10.4237 1.89389C10.0326 1.51664 9.50487 1.31475 8.96185 1.33467H6.77518C6.23216 1.31475 5.7044 1.51664 5.31332 1.89389C4.92223 2.27114 4.70148 2.79129 4.70185 3.33467V5.41467C3.32086 5.9009 2.48099 7.30068 2.70185 8.74801L3.33518 12.5947C3.64755 14.127 5.01176 15.2161 6.57518 15.1813H9.16185C10.7364 15.2209 12.1104 14.12 12.4152 12.5747L13.0485 8.72801C13.2574 7.28395 12.4131 5.89452 11.0352 5.41467ZM5.70184 3.33467C5.72708 2.76643 6.20682 2.32543 6.77518 2.34801H8.96184C9.5302 2.32543 10.0099 2.76643 10.0352 3.33467V5.18134H5.70184V3.33467ZM11.2018 12.3747L11.8685 8.51468C11.9347 8.0153 11.776 7.51231 11.4352 7.14134C11.0208 6.67138 10.4217 6.40594 9.79518 6.41467H5.94185C5.31744 6.40257 4.71872 6.66299 4.30185 7.12801C3.96919 7.50789 3.82262 8.01599 3.90185 8.51468L4.53518 12.3747C4.74188 13.3256 5.60298 13.9897 6.57518 13.948H9.16185C10.134 13.9897 10.9951 13.3256 11.2018 12.3747Z" fill="#ADADB8"/>
</svg>
