<svg width="28" height="28" viewBox="0 0 28 28" fill="none" xmlns="http://www.w3.org/2000/svg">
<path d="M23.0417 12.8333H14.5833V4.375C14.5833 3.89175 14.1916 3.5 13.7083 3.5C13.2251 3.5 12.8333 3.89175 12.8333 4.375V12.8333H4.375C3.89175 12.8333 3.5 13.2251 3.5 13.7083C3.5 14.1916 3.89175 14.5833 4.375 14.5833H12.8333V23.0417C12.8333 23.5249 13.2251 23.9167 13.7083 23.9167C14.1916 23.9167 14.5833 23.5249 14.5833 23.0417V14.5833H23.0417C23.5249 14.5833 23.9167 14.1916 23.9167 13.7083C23.9167 13.2251 23.5249 12.8333 23.0417 12.8333Z" fill="white" stroke="white"/>
</svg>
