<svg width="28" height="28" viewBox="0 0 28 28" fill="none" xmlns="http://www.w3.org/2000/svg">
<path d="M9.32175 11.1183H17.1384C17.5735 11.0675 17.9016 10.6989 17.9016 10.2608C17.9016 9.82278 17.5735 9.45416 17.1384 9.40333H9.32175C8.99151 9.36474 8.66846 9.51923 8.49118 9.80051C8.31391 10.0818 8.31391 10.4399 8.49118 10.7212C8.66846 11.0024 8.99151 11.1569 9.32175 11.1183Z" fill="white"/>
<path d="M9.32175 20.4517H14.8984C15.2287 20.4902 15.5517 20.3358 15.729 20.0545C15.9063 19.7732 15.9063 19.4151 15.729 19.1338C15.5517 18.8526 15.2287 18.6981 14.8984 18.7367H9.32175C8.99151 18.6981 8.66846 18.8526 8.49118 19.1338C8.31391 19.4151 8.31391 19.7732 8.49118 20.0545C8.66846 20.3358 8.99151 20.4902 9.32175 20.4517Z" fill="white"/>
<path d="M19.3668 15.785H9.32175C8.99151 15.8236 8.66846 15.6691 8.49118 15.3878C8.31391 15.1065 8.31391 14.7485 8.49118 14.4672C8.66846 14.1859 8.99151 14.0314 9.32175 14.07H19.3668C19.8018 14.1208 20.1299 14.4894 20.1299 14.9275C20.1299 15.3655 19.8018 15.7342 19.3668 15.785Z" fill="white"/>
<path fill-rule="evenodd" clip-rule="evenodd" d="M18.4217 26.355H10.2551C7.16684 26.3486 4.66674 23.8432 4.66675 20.755V7.92166C4.67317 4.83797 7.17139 2.33975 10.2551 2.33333H18.4217C21.51 2.33332 24.0153 4.83342 24.0217 7.92166V20.755C24.0217 22.2402 23.4318 23.6646 22.3815 24.7148C21.3313 25.765 19.907 26.355 18.4217 26.355ZM10.2551 4.18833C8.19588 4.19473 6.52815 5.86246 6.52175 7.92166V20.755C6.52174 22.8188 8.19133 24.4936 10.2551 24.5H18.4217C20.4901 24.5 22.1667 22.8233 22.1667 20.755V7.92166C22.1603 5.85791 20.4855 4.18832 18.4217 4.18833H10.2551Z" fill="white"/>
<path d="M9.32175 11.1183H17.1384C17.5735 11.0675 17.9016 10.6989 17.9016 10.2608C17.9016 9.82278 17.5735 9.45416 17.1384 9.40333H9.32175C8.99151 9.36474 8.66846 9.51923 8.49118 9.80051C8.31391 10.0818 8.31391 10.4399 8.49118 10.7212C8.66846 11.0024 8.99151 11.1569 9.32175 11.1183Z" stroke="white"/>
<path d="M9.32175 20.4517H14.8984C15.2287 20.4902 15.5517 20.3358 15.729 20.0545C15.9063 19.7732 15.9063 19.4151 15.729 19.1338C15.5517 18.8526 15.2287 18.6981 14.8984 18.7367H9.32175C8.99151 18.6981 8.66846 18.8526 8.49118 19.1338C8.31391 19.4151 8.31391 19.7732 8.49118 20.0545C8.66846 20.3358 8.99151 20.4902 9.32175 20.4517Z" stroke="white"/>
<path d="M19.3668 15.785H9.32175C8.99151 15.8236 8.66846 15.6691 8.49118 15.3878C8.31391 15.1065 8.31391 14.7485 8.49118 14.4672C8.66846 14.1859 8.99151 14.0314 9.32175 14.07H19.3668C19.8018 14.1208 20.1299 14.4894 20.1299 14.9275C20.1299 15.3655 19.8018 15.7342 19.3668 15.785Z" stroke="white"/>
<path fill-rule="evenodd" clip-rule="evenodd" d="M18.4217 26.355H10.2551C7.16684 26.3486 4.66674 23.8432 4.66675 20.755V7.92166C4.67317 4.83797 7.17139 2.33975 10.2551 2.33333H18.4217C21.51 2.33332 24.0153 4.83342 24.0217 7.92166V20.755C24.0217 22.2402 23.4318 23.6646 22.3815 24.7148C21.3313 25.765 19.907 26.355 18.4217 26.355ZM10.2551 4.18833C8.19588 4.19473 6.52815 5.86246 6.52175 7.92166V20.755C6.52174 22.8188 8.19133 24.4936 10.2551 24.5H18.4217C20.4901 24.5 22.1667 22.8233 22.1667 20.755V7.92166C22.1603 5.85791 20.4855 4.18832 18.4217 4.18833H10.2551Z" stroke="white"/>
</svg>
