<svg width="24" height="24" viewBox="0 0 24 24" fill="none" xmlns="http://www.w3.org/2000/svg">
<path fill-rule="evenodd" clip-rule="evenodd" d="M20.29 7.00048L14.73 2.89048C13.1036 1.70317 10.8964 1.70317 9.27 2.89048L3.72 7.00048C2.64544 7.77462 2.0061 9.01612 2 10.3405V17.7705C2.06002 20.1637 4.04665 22.0564 6.44 22.0005H17.56C19.9534 22.0564 21.94 20.1637 22 17.7705V10.3305C21.9914 9.01185 21.3567 7.77576 20.29 7.00048ZM20.5 17.7705C20.4404 19.3354 19.1251 20.5568 17.56 20.5005H6.44C4.87698 20.5512 3.56502 19.333 3.5 17.7705V10.3405C3.50534 9.4904 3.91817 8.69448 4.61 8.20048L10.16 4.10048C11.2561 3.30006 12.7439 3.30006 13.84 4.10048L19.39 8.21048C20.0812 8.6959 20.4948 9.48583 20.5 10.3305V17.7705ZM7.5 15.7505H16.5C16.9142 15.7505 17.25 16.0863 17.25 16.5005C17.25 16.9147 16.9142 17.2505 16.5 17.2505H7.5C7.08579 17.2505 6.75 16.9147 6.75 16.5005C6.75 16.0863 7.08579 15.7505 7.5 15.7505Z" fill="white"/>
<path d="M14.73 2.89048L15.0272 2.4884L15.0248 2.48665L14.73 2.89048ZM20.29 7.00048L19.9928 7.40257L19.996 7.40494L20.29 7.00048ZM9.27 2.89048L8.97518 2.48664L8.97244 2.48866L9.27 2.89048ZM3.72 7.00048L4.01229 7.4062L4.01756 7.4023L3.72 7.00048ZM2 10.3405L1.5 10.3382V10.3405H2ZM2 17.7705H1.49984L1.50016 17.783L2 17.7705ZM6.44 22.0005V21.5003L6.42832 21.5006L6.44 22.0005ZM17.56 22.0005L17.5717 21.5005H17.56V22.0005ZM22 17.7705L22.5 17.783V17.7705H22ZM22 10.3305H22.5L22.5 10.3272L22 10.3305ZM17.56 20.5005L17.578 20.0008L17.569 20.0005H17.56V20.5005ZM20.5 17.7705L20.9996 17.7895L21 17.78V17.7705H20.5ZM6.44 20.5005V20.0005H6.43189L6.42378 20.0007L6.44 20.5005ZM3.5 17.7705H3V17.7809L3.00043 17.7913L3.5 17.7705ZM3.5 10.3405L3 10.3373V10.3405H3.5ZM4.61 8.20048L4.90059 8.60745L4.90709 8.60264L4.61 8.20048ZM10.16 4.10048L9.86512 3.69668L9.86291 3.69832L10.16 4.10048ZM13.84 4.10048L14.1376 3.69866L14.1349 3.69669L13.84 4.10048ZM19.39 8.21048L19.0923 8.61243L19.1027 8.61967L19.39 8.21048ZM20.5 10.3305H21L21 10.3274L20.5 10.3305ZM14.4328 3.29255L19.9928 7.40255L20.5872 6.59841L15.0272 2.48841L14.4328 3.29255ZM9.56482 3.29432C11.0155 2.23523 12.9845 2.23523 14.4352 3.29432L15.0248 2.48665C13.2228 1.17112 10.7772 1.17112 8.97518 2.48665L9.56482 3.29432ZM4.01756 7.4023L9.56756 3.2923L8.97244 2.48866L3.42244 6.59866L4.01756 7.4023ZM2.49999 10.3428C2.50536 9.17837 3.06748 8.08681 4.01227 7.40617L3.42773 6.5948C2.2234 7.46243 1.50685 8.85387 1.50001 10.3382L2.49999 10.3428ZM2.5 17.7705V10.3405H1.5V17.7705H2.5ZM6.42832 21.5006C4.3107 21.5501 2.55295 19.8755 2.49984 17.7579L1.50016 17.783C1.5671 20.452 3.78259 22.5627 6.45168 22.5003L6.42832 21.5006ZM17.56 21.5005H6.44V22.5005H17.56V21.5005ZM21.5002 17.7579C21.447 19.8755 19.6893 21.5501 17.5717 21.5006L17.5483 22.5003C20.2174 22.5627 22.4329 20.452 22.4998 17.783L21.5002 17.7579ZM21.5 10.3305V17.7705H22.5V10.3305H21.5ZM19.996 7.40494C20.9342 8.08681 21.4925 9.17397 21.5 10.3337L22.5 10.3272C22.4904 8.84972 21.7792 7.46472 20.584 6.59603L19.996 7.40494ZM17.542 21.0002C19.3827 21.0663 20.9295 19.63 20.9996 17.7895L20.0004 17.7514C19.9512 19.0409 18.8675 20.0472 17.578 20.0008L17.542 21.0002ZM6.44 21.0005H17.56V20.0005H6.44V21.0005ZM3.00043 17.7913C3.07686 19.6279 4.61898 21.0599 6.45622 21.0002L6.42378 20.0007C5.13497 20.0426 4.05318 19.0381 3.99957 17.7497L3.00043 17.7913ZM3 10.3405V17.7705H4V10.3405H3ZM4.31944 7.79357C3.49708 8.38078 3.00635 9.32687 3.00001 10.3373L3.99999 10.3436C4.00432 9.65393 4.33926 9.00819 4.90056 8.60739L4.31944 7.79357ZM9.86291 3.69832L4.31291 7.79832L4.90709 8.60264L10.4571 4.50264L9.86291 3.69832ZM14.1349 3.69669C12.8631 2.76799 11.1369 2.76799 9.86513 3.69669L10.4549 4.50428C11.3753 3.83213 12.6247 3.83213 13.5451 4.50428L14.1349 3.69669ZM19.6876 7.80866L14.1376 3.69866L13.5424 4.5023L19.0924 8.6123L19.6876 7.80866ZM21 10.3274C20.9938 9.32097 20.501 8.37971 19.6773 7.8013L19.1027 8.61967C19.6615 9.0121 19.9958 9.6507 20 10.3335L21 10.3274ZM21 17.7705V10.3305H20V17.7705H21ZM16.5 15.2505H7.5V16.2505H16.5V15.2505ZM17.75 16.5005C17.75 15.8101 17.1904 15.2505 16.5 15.2505V16.2505C16.6381 16.2505 16.75 16.3624 16.75 16.5005H17.75ZM16.5 17.7505C17.1904 17.7505 17.75 17.1908 17.75 16.5005H16.75C16.75 16.6386 16.6381 16.7505 16.5 16.7505V17.7505ZM7.5 17.7505H16.5V16.7505H7.5V17.7505ZM6.25 16.5005C6.25 17.1908 6.80964 17.7505 7.5 17.7505V16.7505C7.36193 16.7505 7.25 16.6386 7.25 16.5005H6.25ZM7.5 15.2505C6.80964 15.2505 6.25 15.8101 6.25 16.5005H7.25C7.25 16.3624 7.36193 16.2505 7.5 16.2505V15.2505Z" fill="white"/>
</svg>
